<svg width="29" height="28" viewBox="0 0 29 28" fill="none" xmlns="http://www.w3.org/2000/svg">
<path d="M6.67968 7.48001H5.23968C4.47586 7.48001 3.74332 7.78344 3.20321 8.32354C2.66311 8.86365 2.35968 9.59619 2.35968 10.36V23.32C2.35968 24.0838 2.66311 24.8164 3.20321 25.3565C3.74332 25.8966 4.47586 26.2 5.23968 26.2H18.1997C18.9635 26.2 19.696 25.8966 20.2361 25.3565C20.7763 24.8164 21.0797 24.0838 21.0797 23.32V21.88" stroke="#666666" stroke-width="2.88" stroke-linecap="round" stroke-linejoin="round"/>
<path d="M19.6398 4.59997L23.9598 8.91997M25.9542 6.88237C26.5213 6.31523 26.8399 5.54603 26.8399 4.74397C26.8399 3.94192 26.5213 3.17271 25.9542 2.60557C25.387 2.03843 24.6178 1.71982 23.8158 1.71982C23.0137 1.71982 22.2445 2.03843 21.6774 2.60557L9.55975 14.68V19H13.8798L25.9542 6.88237Z" stroke="#666666" stroke-width="2.88" stroke-linecap="round" stroke-linejoin="round"/>
</svg>
