<svg width="74" height="74" viewBox="0 0 74 74" fill="none" xmlns="http://www.w3.org/2000/svg">
<path d="M34.7235 19.5556C34.8874 19.7225 35.0173 19.9207 35.106 20.1389C35.1946 20.357 35.2403 20.5909 35.2403 20.827C35.2403 21.0632 35.1946 21.297 35.106 21.5152C35.0173 21.7333 34.8874 21.9315 34.7235 22.0984L21.8731 35.2032L56.381 35.2032C56.8483 35.2032 57.2964 35.3925 57.6269 35.7295C57.9573 36.0665 58.1429 36.5236 58.1429 37.0002C58.1429 37.4768 57.9573 37.9339 57.6269 38.2709C57.2964 38.6079 56.8483 38.7972 56.381 38.7972L21.8731 38.7972L34.7235 51.902C35.0541 52.2392 35.2399 52.6965 35.2399 53.1734C35.2399 53.6503 35.0541 54.1076 34.7235 54.4448C34.3929 54.782 33.9446 54.9714 33.477 54.9714C33.0095 54.9714 32.5611 54.782 32.2305 54.4448L16.3739 38.2716C16.2101 38.1047 16.0801 37.9065 15.9915 37.6884C15.9028 37.4702 15.8572 37.2364 15.8572 37.0002C15.8572 36.7641 15.9028 36.5302 15.9915 36.3121C16.0801 36.0939 16.2101 35.8957 16.3739 35.7288L32.2305 19.5556C32.3942 19.3885 32.5885 19.256 32.8024 19.1656C33.0162 19.0751 33.2455 19.0286 33.477 19.0286C33.7086 19.0286 33.9378 19.0751 34.1517 19.1656C34.3656 19.256 34.5599 19.3885 34.7235 19.5556Z" fill="#E11E18"/>
</svg>
