<svg width="93" height="93" viewBox="0 0 93 93" fill="none" xmlns="http://www.w3.org/2000/svg">
<g id="ph:arrow-up">
<path id="Vector" d="M43.6391 24.5767C43.845 24.7864 44.0083 25.0355 44.1198 25.3097C44.2312 25.5838 44.2885 25.8777 44.2885 26.1745C44.2885 26.4713 44.2312 26.7652 44.1198 27.0393C44.0083 27.3135 43.845 27.5626 43.6391 27.7723L27.4892 44.2419L70.8574 44.2418C71.4446 44.2418 72.0078 44.4798 72.423 44.9033C72.8383 45.3269 73.0716 45.9013 73.0716 46.5003C73.0716 47.0992 72.8383 47.6737 72.423 48.0972C72.0078 48.5207 71.4446 48.7587 70.8574 48.7587L27.4892 48.7587L43.6391 65.2282C44.0546 65.652 44.288 66.2267 44.288 66.826C44.288 67.4254 44.0546 68.0001 43.6391 68.4239C43.2237 68.8477 42.6602 69.0857 42.0726 69.0857C41.485 69.0857 40.9215 68.8477 40.506 68.4239L20.5781 48.0981C20.3722 47.8884 20.2089 47.6393 20.0975 47.3651C19.9861 47.0909 19.9287 46.7971 19.9287 46.5003C19.9287 46.2035 19.9861 45.9096 20.0975 45.6354C20.2089 45.3613 20.3722 45.1122 20.5781 44.9024L40.506 24.5767C40.7117 24.3667 40.9559 24.2001 41.2247 24.0864C41.4935 23.9728 41.7816 23.9143 42.0726 23.9143C42.3636 23.9143 42.6517 23.9728 42.9205 24.0864C43.1893 24.2001 43.4335 24.3667 43.6391 24.5767Z" fill="#E11E18"/>
</g>
</svg>
